<svg xmlns="http://www.w3.org/2000/svg" viewBox="0 0 1200 900" role="img" aria-labelledby="title desc">
  <title id="title">Autonomous collection robot illustration</title>
  <desc id="desc">Technical illustration of a compact mobile robot with sensors, wheels, and collected objects.</desc>
  <rect width="1200" height="900" fill="#f7f9fb"/>
  <path d="M120 700h960" stroke="#d9e0e8" stroke-width="8"/>
  <path d="M250 365h520c75 0 135 60 135 135v120H180V435c0-39 31-70 70-70z" fill="#fff" stroke="#172033" stroke-width="10"/>
  <path d="M265 425h205v115H265z" fill="#d9efe9" stroke="#1c7c8a" stroke-width="8"/>
  <path d="M525 425h230v115H525z" fill="#fff" stroke="#526070" stroke-width="8"/>
  <circle cx="315" cy="650" r="70" fill="#172033"/>
  <circle cx="760" cy="650" r="70" fill="#172033"/>
  <circle cx="315" cy="650" r="28" fill="#f4b860"/>
  <circle cx="760" cy="650" r="28" fill="#f4b860"/>
  <path d="M520 330v-95h160v95" fill="none" stroke="#526070" stroke-width="14" stroke-linecap="round"/>
  <circle cx="600" cy="220" r="36" fill="#1c7c8a"/>
  <path d="M860 388c72-90 180-90 252 0M905 425c42-52 120-52 162 0" fill="none" stroke="#1c7c8a" stroke-width="12" stroke-linecap="round"/>
  <path d="M190 560h145l55-55 55 55h450" fill="none" stroke="#f4b860" stroke-width="12" stroke-linecap="round" stroke-linejoin="round"/>
  <circle cx="975" cy="625" r="42" fill="#d9efe9" stroke="#1c7c8a" stroke-width="8"/>
  <rect x="1015" y="565" width="72" height="72" rx="10" fill="#fff" stroke="#526070" stroke-width="8"/>
  <path d="M240 270h120m-60-60v120" stroke="#d9e0e8" stroke-width="12" stroke-linecap="round"/>
</svg>
