<svg xmlns="http://www.w3.org/2000/svg" viewBox="0 0 1200 900" role="img" aria-labelledby="title desc">
  <title id="title">Resume systems hero illustration</title>
  <desc id="desc">Bright technical illustration of vibration analysis, Python data, CAD geometry, and mechanical testing.</desc>
  <rect width="1200" height="900" fill="#fff0f8"/>
  <path d="M80 720h1040" stroke="#f3b9d8" stroke-width="8"/>
  <rect x="120" y="120" width="440" height="300" rx="8" fill="#fff" stroke="#f3b9d8" stroke-width="6"/>
  <path d="M170 310c42-95 82-95 122 0s82 95 124 0 82-95 124 0" fill="none" stroke="#ff2f92" stroke-width="16" stroke-linecap="round"/>
  <path d="M170 190h330M170 235h220" stroke="#725069" stroke-width="14" stroke-linecap="round"/>
  <rect x="625" y="120" width="420" height="300" rx="8" fill="#241022"/>
  <path d="M670 195h160M670 245h260M670 295h110M670 345h210" stroke="#00c2d1" stroke-width="14" stroke-linecap="round"/>
  <circle cx="970" cy="185" r="34" fill="#ff2f92"/>
  <path d="M220 530h260c55 0 100 45 100 100v90H155V595c0-36 29-65 65-65z" fill="#fff" stroke="#241022" stroke-width="10"/>
  <circle cx="270" cy="735" r="54" fill="#241022"/>
  <circle cx="505" cy="735" r="54" fill="#241022"/>
  <circle cx="270" cy="735" r="20" fill="#00c2d1"/>
  <circle cx="505" cy="735" r="20" fill="#00c2d1"/>
  <rect x="255" y="580" width="150" height="85" rx="8" fill="#ffe0f1" stroke="#ff2f92" stroke-width="6"/>
  <path d="M710 510h260l70 210H650z" fill="#fff" stroke="#f3b9d8" stroke-width="8"/>
  <path d="M735 660h250M765 610h190M795 560h130" stroke="#ff2f92" stroke-width="18" stroke-linecap="round"/>
  <path d="M795 455c85 70 215 70 300 0" fill="none" stroke="#00c2d1" stroke-width="16" stroke-linecap="round"/>
</svg>
