<svg xmlns="http://www.w3.org/2000/svg" viewBox="0 0 1200 900" role="img" aria-labelledby="title desc">
  <title id="title">Collaborative robot buffing cell</title>
  <desc id="desc">A collaborative robot workcell with a cabinet fixture, buffing path, and safety layout.</desc>
  <rect width="1200" height="900" fill="#FAF8F6"/>
  <rect x="100" y="110" width="1000" height="630" rx="8" fill="#fff" stroke="#eadfdc" stroke-width="8"/>
  <rect x="155" y="570" width="890" height="95" rx="10" fill="#EFF5EA" stroke="#93A889" stroke-width="6"/>
  <g fill="#2C2C31">
    <rect x="250" y="515" width="135" height="85" rx="8"/>
    <rect x="780" y="505" width="160" height="95" rx="8"/>
  </g>
  <g fill="none" stroke="#D97998" stroke-width="24" stroke-linecap="round" stroke-linejoin="round">
    <path d="M575 545 L575 430 L660 370"/>
    <path d="M660 370 L760 430"/>
  </g>
  <g fill="#fff" stroke="#2C2C31" stroke-width="12">
    <circle cx="575" cy="545" r="34"/>
    <circle cx="660" cy="370" r="36"/>
    <circle cx="760" cy="430" r="30"/>
  </g>
  <circle cx="790" cy="455" r="42" fill="#93A889"/>
  <path d="M820 458 C880 465 910 492 925 532" fill="none" stroke="#D97998" stroke-width="8" stroke-linecap="round" stroke-dasharray="14 14"/>
  <g fill="none" stroke="#6B7280" stroke-width="8">
    <path d="M185 185 H1015 V690 H185 Z"/>
    <path d="M185 690 L295 580"/>
    <path d="M1015 690 L905 580"/>
  </g>
  <g font-family="Inter, Aptos, Segoe UI, sans-serif" font-weight="700">
    <text x="155" y="210" fill="#2C2C31" font-size="52">Cobot Buffing Cell</text>
    <text x="158" y="260" fill="#6B7280" font-size="30">Layout, fixtures, safety, setup, and validation</text>
    <text x="165" y="625" fill="#93A889" font-size="30">operator flow</text>
  </g>
</svg>
